<?xml version="1.0" standalone="no"?>
<!DOCTYPE svg PUBLIC "-//W3C//DTD SVG 20010904//EN"
 "http://www.w3.org/TR/2001/REC-SVG-20010904/DTD/svg10.dtd">
<svg version="1.0" xmlns="http://www.w3.org/2000/svg"
 width="300.000000pt" height="300.000000pt" viewBox="0 0 300.000000 300.000000"
 preserveAspectRatio="xMidYMid meet">
<metadata>
Created by potrace 1.10, written by Peter Selinger 2001-2011
</metadata>
<g transform="translate(0.000000,300.000000) scale(0.100000,-0.100000)"
fill="#0d97f4" stroke="none">
<path d="M1265 2983 c-204 -30 -449 -131 -637 -263 -347 -245 -598 -680 -613
-1065 -4 -107 4 -100 18 15 11 88 38 211 63 288 30 89 134 308 161 337 11 11
19 24 20 28 2 22 107 147 193 229 124 120 218 188 354 258 162 84 413 158 546
161 25 1 56 5 70 9 27 8 -119 11 -175 3z"/>
<path d="M1550 2987 c3 -3 39 -11 80 -16 123 -17 152 -22 215 -38 102 -25 118
-30 198 -62 127 -51 173 -77 343 -191 84 -57 292 -269 287 -291 -2 -5 1 -9 6
-9 11 0 92 -121 129 -195 90 -180 142 -352 158 -520 2 -22 8 -58 13 -80 9 -32
10 -20 7 65 -7 165 -54 335 -143 515 -200 402 -566 693 -1003 797 -79 18 -302
38 -290 25z"/>
<path d="M2170 2399 c-30 -3 -82 -9 -115 -13 -32 -4 -113 -25 -180 -47 -205
-70 -361 -164 -503 -306 l-93 -93 -83 0 c-87 0 -196 -17 -196 -31 0 -4 -9 -11
-20 -14 -29 -9 -91 -97 -164 -233 -35 -64 -74 -135 -86 -157 -78 -137 -130
-246 -130 -272 0 -17 6 -42 12 -55 11 -20 18 -23 45 -17 18 3 47 13 65 22 18
8 78 34 133 56 55 23 112 48 126 56 80 44 84 36 14 -33 -41 -40 -76 -67 -85
-64 -12 3 -12 2 -1 -6 10 -8 3 -22 -35 -68 -113 -140 -259 -405 -271 -495 -5
-33 -2 -45 11 -55 10 -7 15 -18 11 -26 -3 -7 0 -6 7 4 8 9 32 21 53 27 22 6
64 22 93 36 28 14 54 25 56 25 2 0 39 20 80 45 42 25 81 45 86 45 6 0 10 5 10
11 0 5 5 7 10 4 6 -3 10 -2 10 3 0 5 25 26 55 46 68 45 82 56 162 131 36 33
69 61 74 63 5 2 9 9 9 16 0 7 9 21 20 31 17 16 20 16 20 2 0 -9 -4 -19 -10
-22 -5 -3 -10 -13 -10 -22 0 -9 -10 -28 -22 -41 -13 -14 -17 -22 -10 -18 17
10 15 0 -12 -53 -26 -52 -33 -67 -75 -170 -36 -85 -38 -111 -11 -136 14 -13
28 -16 55 -11 38 8 125 45 150 66 8 7 15 9 15 5 0 -5 8 -1 18 7 15 13 91 56
237 133 28 14 70 39 95 55 25 16 54 34 65 39 11 5 33 23 49 40 16 16 33 28 37
25 5 -3 11 5 13 18 14 67 26 159 25 194 -1 27 -5 15 -14 -42 -28 -178 -27
-177 -421 -392 -201 -110 -247 -132 -282 -132 -73 0 -72 6 41 265 81 184 100
221 115 218 44 -10 320 61 392 100 19 11 52 28 72 39 20 11 42 26 49 34 18 22
27 17 31 -17 l3 -31 19 21 c17 18 17 21 3 15 -39 -14 -14 31 52 95 37 36 94
99 126 138 31 40 61 70 66 67 5 -3 6 3 2 12 -4 12 -3 15 5 10 8 -5 10 -1 5 10
-5 13 -3 15 7 9 10 -6 12 -4 7 8 -4 12 -1 17 9 17 11 0 15 6 11 20 -3 11 0 18
7 17 6 -1 11 5 12 13 0 8 7 29 15 45 25 49 68 192 93 313 42 206 30 357 -32
380 -60 23 -129 31 -202 21z m163 -30 c60 -16 72 -45 71 -169 -2 -288 -137
-611 -343 -824 -42 -43 -102 -96 -134 -118 -135 -92 -320 -157 -490 -173 l-78
-7 -42 -55 c-83 -107 -300 -269 -487 -363 -103 -52 -206 -88 -217 -76 -24 24
81 248 199 428 59 89 111 152 190 230 88 87 108 112 108 136 0 95 54 300 108
407 150 300 493 524 902 588 53 9 177 6 213 -4z m-1068 -445 c14 -6 14 -9 -4
-28 -31 -34 -87 -153 -120 -256 -31 -99 -57 -243 -46 -259 7 -12 -26 -29 -195
-104 -235 -104 -249 -108 -270 -97 -41 22 -20 83 105 310 20 36 69 123 108
195 83 150 134 207 204 229 49 15 188 21 218 10z"/>
<path d="M2059 2151 c-48 -48 -38 -116 22 -147 95 -49 180 77 100 148 -42 38
-83 37 -122 -1z m105 -12 c56 -44 18 -132 -54 -121 -59 9 -78 73 -35 117 31
30 54 32 89 4z"/>
<path d="M2202 1997 c-3 -40 -43 -77 -85 -77 -38 0 -63 22 -77 66 l-8 29 -1
-28 c-1 -19 9 -38 28 -58 38 -38 80 -39 122 -1 26 23 30 33 26 62 -3 30 -4 31
-5 7z"/>
<path d="M1785 1992 c-22 -10 -55 -35 -72 -55 -115 -131 18 -342 187 -297 46
12 104 59 126 101 21 41 18 122 -6 169 -42 82 -153 120 -235 82z m163 -35 c39
-26 72 -90 72 -138 0 -39 -29 -107 -53 -128 -10 -7 -17 -10 -17 -7 0 4 -7 0
-16 -8 -8 -9 -23 -16 -32 -17 -9 0 -28 -2 -42 -3 -40 -5 -105 29 -136 70 -24
31 -29 47 -29 93 0 46 5 63 29 94 59 77 147 94 224 44z"/>
<path d="M1675 1695 c5 -45 26 -76 79 -119 33 -27 46 -31 100 -31 51 0 70 5
104 28 44 28 83 90 81 129 0 15 -3 18 -6 8 -28 -79 -52 -109 -102 -135 -101
-51 -209 7 -252 134 -7 21 -8 18 -4 -14z"/>
<path d="M1452 1585 c-23 -7 -50 -19 -59 -27 -9 -7 -123 -151 -254 -319 -131
-168 -245 -312 -254 -319 -21 -17 -19 -43 6 -66 18 -16 23 -17 43 -4 30 19
256 201 256 206 0 7 -143 -98 -202 -148 -59 -50 -82 -58 -92 -32 -7 19 -1 31
39 76 17 18 43 50 58 71 16 21 33 34 39 31 7 -4 8 -2 4 5 -8 12 22 56 74 114
14 15 84 103 155 196 144 188 160 200 263 209 74 6 78 2 81 -64 3 -92 -18
-128 -119 -209 -25 -20 -52 -42 -60 -48 -8 -7 -33 -26 -55 -42 -22 -16 -42
-32 -45 -36 -3 -3 -27 -22 -54 -42 -27 -21 -56 -47 -65 -60 -14 -21 -14 -21 5
-6 10 9 99 78 198 154 198 154 205 163 214 276 3 52 1 68 -13 82 -20 21 -100
22 -163 2z"/>
<path d="M1621 1394 c0 -11 3 -14 6 -6 3 7 2 16 -1 19 -3 4 -6 -2 -5 -13z"/>
<path d="M1605 1341 c-9 -38 -55 -88 -136 -149 -70 -52 -130 -106 -104 -93 11
5 65 45 120 88 100 78 142 133 132 171 -3 11 -7 4 -12 -17z"/>
<path d="M989 1198 c-100 -139 -180 -306 -183 -378 l-1 -45 37 0 c20 0 43 -6
49 -12 19 -19 43 -16 65 8 10 12 56 48 102 81 45 33 82 62 82 65 0 3 -21 -8
-47 -23 -102 -60 -227 -114 -265 -114 -11 0 -18 8 -18 20 0 51 97 257 180 380
44 67 52 80 47 80 -2 0 -24 -28 -48 -62z m-28 -408 c-31 -26 -61 -31 -61 -8 0
5 5 6 10 3 6 -3 10 -1 10 5 0 6 4 9 9 6 4 -3 17 1 27 9 35 27 39 15 5 -15z"/>
<path d="M1243 1068 c2 -7 15 -12 28 -10 22 2 22 0 -11 -28 -27 -24 -43 -30
-72 -28 -52 3 -58 -9 -8 -14 37 -3 49 1 99 40 31 24 58 46 60 48 2 2 -19 4
-48 4 -38 0 -51 -4 -48 -12z"/>
<path d="M1255 990 c-3 -6 1 -7 9 -4 18 7 21 14 7 14 -6 0 -13 -4 -16 -10z"/>
<path d="M1204 954 c-18 -14 -18 -15 4 -4 12 6 22 13 22 15 0 8 -5 6 -26 -11z"/>
<path d="M880 819 c0 -5 5 -7 10 -4 6 3 10 8 10 11 0 2 -4 4 -10 4 -5 0 -10
-5 -10 -11z"/>
<path d="M14 1350 c14 -341 208 -722 497 -977 239 -210 563 -348 839 -359 102
-3 96 4 -15 19 -149 20 -249 45 -370 94 -124 50 -261 124 -350 191 -97 72
-266 251 -334 352 -139 208 -210 395 -246 650 -21 151 -26 157 -21 30z"/>
<path d="M2976 1422 c-4 -15 -8 -54 -10 -87 -16 -231 -147 -554 -305 -748 -30
-37 -126 -140 -151 -163 -14 -12 -41 -36 -60 -54 -42 -37 -206 -146 -275 -182
-157 -82 -265 -113 -575 -167 -48 -9 -42 -9 50 -6 274 9 601 149 839 358 287
254 479 629 498 975 6 99 1 130 -11 74z"/>
<path d="M1919 1169 l-24 -20 28 17 c15 9 27 18 27 20 0 8 -8 4 -31 -17z"/>
<path d="M1877 1153 c-4 -3 -7 -11 -7 -17 0 -6 5 -5 12 2 6 6 9 14 7 17 -3 3
-9 2 -12 -2z"/>
<path d="M1835 1120 c-3 -6 1 -7 9 -4 18 7 21 14 7 14 -6 0 -13 -4 -16 -10z"/>
<path d="M1795 1100 c-3 -6 1 -7 9 -4 18 7 21 14 7 14 -6 0 -13 -4 -16 -10z"/>
<path d="M1741 1079 c-13 -5 -21 -12 -18 -15 3 -3 18 1 34 10 31 17 21 20 -16
5z"/>
<path d="M1590 1030 c-20 -6 -21 -8 -5 -8 11 0 29 3 40 8 25 11 -1 11 -35 0z"/>
<path d="M1490 1010 l-25 -8 28 -1 c15 -1 27 4 27 9 0 6 -1 10 -2 9 -2 -1 -14
-5 -28 -9z"/>
<path d="M1420 1000 l-25 -8 28 -1 c15 -1 27 4 27 9 0 6 -1 10 -2 9 -2 -1 -14
-5 -28 -9z"/>
<path d="M1560 640 c-9 -6 -10 -10 -3 -10 6 0 15 5 18 10 8 12 4 12 -15 0z"/>
</g>
</svg>
