<?xml version="1.0" standalone="no"?>
<!DOCTYPE svg PUBLIC "-//W3C//DTD SVG 20010904//EN"
 "http://www.w3.org/TR/2001/REC-SVG-20010904/DTD/svg10.dtd">
<svg version="1.0" xmlns="http://www.w3.org/2000/svg"
 width="600.000000pt" height="600.000000pt" viewBox="0 0 600.000000 600.000000"
 preserveAspectRatio="xMidYMid meet">
<metadata>
Created by potrace 1.10, written by Peter Selinger 2001-2011
</metadata>
<g transform="translate(0.000000,600.000000) scale(0.100000,-0.100000)"
fill="#1d6eff" stroke="none">
<path d="M3023 5592 c-13 -2 -28 -11 -35 -20 -7 -9 -32 -30 -55 -46 -25 -16
-43 -37 -43 -47 0 -11 -7 -19 -15 -19 -8 0 -29 -17 -47 -37 -18 -21 -53 -58
-79 -83 -25 -25 -51 -55 -58 -67 -6 -13 -17 -23 -24 -23 -7 0 -47 -37 -90 -82
-96 -103 -85 -92 -129 -129 -21 -17 -38 -37 -38 -44 0 -8 -8 -16 -19 -20 -10
-3 -46 -34 -80 -68 -33 -34 -79 -78 -101 -97 -21 -19 -39 -42 -40 -52 0 -9
-13 -21 -30 -26 -16 -6 -35 -22 -41 -35 -6 -14 -22 -30 -35 -36 -14 -6 -34
-27 -45 -46 -12 -19 -24 -35 -28 -35 -9 0 22 31 -794 -786 l-727 -729 0 -46
c0 -36 6 -54 28 -80 15 -19 303 -309 639 -644 337 -336 613 -615 613 -620 0
-14 1203 -1212 1248 -1244 43 -30 89 -29 138 2 22 14 315 302 653 641 338 338
618 617 622 618 5 2 290 284 633 626 566 565 625 628 631 663 4 21 2 53 -4 71
-17 50 -1238 1268 -1271 1268 -20 0 -169 -143 -677 -651 -359 -358 -653 -655
-653 -660 0 -5 -4 -9 -10 -9 -5 0 -10 14 -10 30 0 17 4 30 9 30 17 0 1291
1277 1291 1293 0 25 -36 40 -61 26 -16 -8 -24 -8 -32 0 -9 9 -6 13 11 17 12 4
22 9 22 13 0 13 -106 109 -127 116 -13 3 -23 13 -23 22 0 17 -52 75 -185 205
-240 236 -292 287 -322 319 -18 19 -40 42 -50 51 -10 10 -56 57 -103 104 -271
275 -346 344 -391 357 -24 7 -54 11 -66 9z m-343 -425 c0 -2 -9 -12 -20 -22
-19 -18 -20 -17 -20 3 0 15 6 22 20 22 11 0 20 -2 20 -3z m810 -17 c0 -11 -2
-20 -3 -20 -2 0 -12 9 -22 20 -18 19 -17 20 3 20 15 0 22 -6 22 -20z m-389
-35 c17 -19 37 -35 45 -35 8 0 14 -9 14 -19 0 -11 12 -29 28 -40 15 -11 31
-25 35 -30 5 -5 52 -52 104 -104 52 -52 100 -101 106 -107 7 -7 55 -55 107
-107 52 -52 113 -112 135 -134 22 -22 49 -49 60 -60 11 -11 37 -37 57 -57 21
-20 38 -46 38 -57 0 -13 -135 -154 -386 -403 -308 -306 -389 -382 -405 -377
-10 4 -19 10 -19 15 0 4 -167 174 -370 376 -402 401 -397 395 -419 407 -9 4
-1 5 18 2 32 -5 41 3 220 177 102 100 190 189 194 197 5 9 24 28 43 42 19 15
47 42 62 61 15 18 56 60 92 93 36 32 69 65 74 73 4 8 25 30 47 49 21 19 41 43
44 54 10 29 42 23 76 -16z m399 -70 c0 -8 -7 -15 -15 -15 -8 0 -15 7 -15 15 0
8 7 15 15 15 8 0 15 -7 15 -15z m395 -285 c18 -19 17 -20 -3 -20 -15 0 -22 6
-22 20 0 11 2 20 3 20 2 0 12 -9 22 -20z m75 -90 c0 -11 -2 -20 -3 -20 -2 0
-12 9 -22 20 -18 19 -17 20 3 20 15 0 22 -6 22 -20z m-1877 -120 c16 -19 16
-20 -3 -20 -13 0 -20 7 -20 20 0 11 1 20 3 20 1 0 10 -9 20 -20z m-163 -150
c0 -14 -7 -20 -22 -20 -20 0 -21 1 -3 20 10 11 20 20 22 20 1 0 3 -9 3 -20z
m1987 -14 c-2 -6 -10 -12 -18 -13 -22 -4 -43 13 -36 31 5 13 11 14 32 4 14 -6
24 -16 22 -22z m-2156 -623 c9 -10 164 -165 345 -345 181 -180 347 -345 369
-368 l40 -40 -388 -385 c-213 -212 -390 -385 -393 -385 -7 0 -774 764 -774
771 0 10 765 769 775 769 6 0 18 -8 26 -17z m3019 -370 c209 -208 380 -381
380 -385 0 -5 -675 -682 -756 -757 -2 -3 -17 8 -33 25 -15 16 -167 167 -337
336 -170 169 -329 327 -354 353 l-45 45 380 380 c209 209 381 380 383 380 1 0
173 -170 382 -377z m-950 -1713 c0 -8 -748 -754 -760 -758 -12 -4 -771 749
-767 761 1 4 173 178 382 387 l380 380 382 -382 c211 -211 383 -385 383 -388z"/>
</g>
</svg>
