<?xml version="1.0" standalone="no"?>
<!DOCTYPE svg PUBLIC "-//W3C//DTD SVG 20010904//EN"
 "http://www.w3.org/TR/2001/REC-SVG-20010904/DTD/svg10.dtd">
<svg version="1.0" xmlns="http://www.w3.org/2000/svg"
 width="64.000000pt" height="64.000000pt" viewBox="0 0 64.000000 64.000000"
 preserveAspectRatio="xMidYMid meet">
<metadata>
Created by potrace 1.10, written by Peter Selinger 2001-2011
</metadata>
<g transform="translate(0.000000,64.000000) scale(0.100000,-0.100000)"
fill="#000000" stroke="none">
<path d="M217 633 c-2 -5 -7 -24 -11 -43 -5 -27 -14 -40 -42 -55 -50 -27 -110
-97 -128 -152 -26 -76 -21 -150 15 -221 49 -99 119 -145 239 -156 62 -6 64 -6
33 8 -53 24 -67 56 -60 138 l6 72 68 68 c37 37 63 68 57 68 -6 0 -35 -25 -64
-56 l-53 -56 7 34 c4 23 29 55 78 106 40 39 68 72 63 72 -5 0 -38 -28 -72 -62
-58 -57 -62 -60 -54 -31 23 78 77 115 173 117 32 1 58 3 58 5 0 23 -127 81
-179 81 l-43 0 6 36 c6 31 5 35 -11 32 -10 -2 -17 -11 -15 -20 1 -10 -7 -17
-24 -21 -23 -4 -25 -2 -21 19 4 23 -16 35 -26 17z m88 -85 c-3 -13 -14 -72
-25 -133 l-20 -110 -66 -65 c-37 -36 -64 -57 -61 -47 4 9 18 84 32 165 14 81
28 157 30 169 5 23 42 41 88 42 23 1 27 -2 22 -21z m110 -17 c31 -15 35 -20
18 -20 -27 -1 -72 -20 -95 -39 -16 -14 -18 -13 -18 9 1 72 23 84 95 50z m-250
-43 c-3 -13 -16 -84 -29 -158 -23 -130 -24 -136 -6 -160 13 -19 26 -25 56 -25
31 0 39 -4 42 -20 7 -50 14 -66 34 -85 27 -25 18 -25 -31 0 -100 50 -151 130
-159 245 -5 76 8 119 55 188 29 42 46 48 38 15z m88 -240 c-6 -33 -49 -73 -88
-82 -28 -7 -26 -4 29 53 33 33 61 59 62 58 1 -1 0 -14 -3 -29z m-193 2 c0 -5
-2 -10 -4 -10 -3 0 -8 5 -11 10 -3 6 -1 10 4 10 6 0 11 -4 11 -10z m14 -44 c3
-13 9 -32 12 -43 6 -16 5 -16 -8 2 -20 27 -32 65 -20 65 6 0 13 -11 16 -24z
m158 -38 c-7 -7 -12 -8 -12 -2 0 6 3 14 7 17 3 4 9 5 12 2 2 -3 -1 -11 -7 -17z"/>
<path d="M565 443 c14 -21 25 -43 25 -49 0 -7 -28 -10 -79 -10 l-80 1 42 44
c23 25 33 39 22 31 -28 -20 -88 -88 -91 -103 -2 -7 -12 -59 -22 -117 -20 -109
-17 -139 16 -141 37 -2 108 2 127 8 18 5 17 3 -5 -22 -28 -30 -66 -52 -125
-72 -37 -12 -34 -12 50 -7 50 4 93 8 98 11 4 2 7 24 7 48 0 28 10 62 28 96 24
47 27 65 28 154 0 55 4 112 8 126 7 24 4 27 -25 33 -50 10 -51 8 -24 -31z
m-40 -83 c4 -6 10 -8 15 -5 4 3 16 2 25 -2 15 -5 17 -17 13 -78 -8 -121 -49
-165 -142 -151 l-43 7 4 47 c7 73 32 175 46 184 18 11 75 10 82 -2z"/>
</g>
</svg>
