<?xml version="1.0" standalone="no"?>
<!DOCTYPE svg PUBLIC "-//W3C//DTD SVG 20010904//EN"
 "http://www.w3.org/TR/2001/REC-SVG-20010904/DTD/svg10.dtd">
<svg version="1.0" xmlns="http://www.w3.org/2000/svg"
 width="180.000000pt" height="180.000000pt" viewBox="0 0 180.000000 180.000000"
 preserveAspectRatio="xMidYMid meet">
<metadata>
Created by potrace 1.10, written by Peter Selinger 2001-2011
</metadata>
<g transform="translate(0.000000,180.000000) scale(0.100000,-0.100000)"
fill="#0d97f4" stroke="none">
<path d="M498 1332 c-256 -257 -409 -418 -413 -435 -5 -18 -1 -34 13 -54 12
-15 199 -206 416 -423 l396 -395 401 400 c220 220 406 412 414 427 9 16 12 35
7 46 -6 17 -815 842 -825 842 -2 0 -186 -184 -409 -408z m815 -30 c234 -235
397 -405 397 -416 0 -10 -42 -62 -92 -115 -139 -144 -568 -571 -575 -571 -3 0
-2 21 2 47 7 49 23 68 253 299 19 19 30 34 26 34 -4 0 -72 -64 -151 -142 -131
-131 -143 -145 -143 -179 0 -48 -54 -153 -92 -180 l-30 -22 -399 404 c-275
278 -399 410 -399 425 0 14 101 123 326 347 179 180 329 327 334 327 16 0 -2
-93 -24 -123 -40 -55 -17 -152 46 -185 12 -7 37 -35 54 -61 l31 -49 -118 -119
c-72 -73 -119 -128 -119 -140 0 -21 22 -45 168 -186 50 -49 95 -86 101 -83 5
4 23 -10 39 -29 l29 -36 82 83 c44 45 81 86 81 91 0 4 -34 -27 -76 -68 -76
-77 -93 -84 -113 -47 -8 16 7 35 105 133 63 62 117 124 121 137 5 21 -13 42
-118 148 -68 68 -131 124 -141 124 -22 0 -54 34 -79 83 -12 23 -27 37 -38 37
-56 0 -83 116 -38 158 16 15 24 35 25 59 2 59 32 133 69 174 20 22 40 39 47
39 6 0 190 -179 409 -398z m-276 -284 c68 -68 123 -127 123 -133 0 -6 -56 -66
-125 -135 l-125 -125 -125 125 c-69 69 -125 128 -125 133 0 7 238 250 250 255
3 1 60 -53 127 -120z"/>
<path d="M833 1473 c9 -2 23 -2 30 0 6 3 -1 5 -18 5 -16 0 -22 -2 -12 -5z"/>
<path d="M897 1460 c12 -5 29 -22 37 -37 8 -15 15 -23 16 -17 0 19 -41 64 -58
63 -13 0 -11 -3 5 -9z"/>
<path d="M952 1361 c1 -16 6 -27 10 -25 11 7 10 42 -2 49 -6 4 -10 -5 -8 -24z"/>
<path d="M780 1349 c0 -13 5 -31 10 -39 7 -11 8 -5 4 20 -8 43 -14 51 -14 19z"/>
<path d="M919 1283 c-13 -16 -12 -17 4 -4 9 7 17 15 17 17 0 8 -8 3 -21 -13z"/>
<path d="M870 1260 c-12 -8 -11 -10 8 -10 12 0 22 5 22 10 0 13 -11 13 -30 0z"/>
<path d="M423 1073 c9 -2 23 -2 30 0 6 3 -1 5 -18 5 -16 0 -22 -2 -12 -5z"/>
<path d="M353 1046 c-15 -13 -26 -26 -23 -28 3 -2 18 9 34 24 35 34 27 37 -11
4z"/>
<path d="M480 1063 c8 -3 24 -13 35 -22 20 -16 20 -16 1 7 -11 12 -26 22 -35
21 -14 0 -14 -1 -1 -6z"/>
<path d="M322 970 c0 -19 2 -27 5 -17 2 9 2 25 0 35 -3 9 -5 1 -5 -18z"/>
<path d="M543 965 c0 -22 2 -30 4 -17 2 12 2 30 0 40 -3 9 -5 -1 -4 -23z"/>
<path d="M1343 931 c-17 -11 -37 -30 -43 -41 -18 -33 -7 -33 15 0 11 16 32 35
48 41 34 14 92 6 121 -18 l21 -17 -21 23 c-31 33 -99 39 -141 12z"/>
<path d="M330 927 c-1 -19 23 -48 50 -62 32 -17 96 -20 105 -6 3 6 -9 7 -30 4
-44 -7 -92 13 -110 46 -8 14 -14 22 -15 18z"/>
<path d="M509 883 c-13 -16 -12 -17 4 -4 9 7 17 15 17 17 0 8 -8 3 -21 -13z"/>
<path d="M1510 872 c7 -13 9 -35 5 -49 -4 -16 -2 -22 5 -18 15 9 12 48 -6 71
-14 18 -15 18 -4 -4z"/>
<path d="M1265 859 c-4 -6 -5 -12 -2 -15 2 -3 7 2 10 11 7 17 1 20 -8 4z"/>
<path d="M1496 773 c-6 -14 -5 -15 5 -6 7 7 10 15 7 18 -3 3 -9 -2 -12 -12z"/>
<path d="M1166 754 c-11 -7 -17 -17 -13 -20 3 -4 14 1 23 10 9 9 15 19 13 21
-2 2 -13 -3 -23 -11z"/>
<path d="M1380 645 c-13 -14 -22 -26 -19 -28 2 -1 16 10 31 25 15 15 23 28 19
28 -4 0 -18 -11 -31 -25z"/>
<path d="M1335 600 c-3 -5 -1 -10 4 -10 6 0 11 5 11 10 0 6 -2 10 -4 10 -3 0
-8 -4 -11 -10z"/>
<path d="M941 524 c0 -11 3 -14 6 -6 3 7 2 16 -1 19 -3 4 -6 -2 -5 -13z"/>
<path d="M1000 516 c0 -2 5 -17 11 -33 6 -15 15 -46 20 -68 7 -35 8 -32 4 18
-3 33 -12 65 -20 74 -8 8 -15 12 -15 9z"/>
<path d="M892 473 c-18 -20 -32 -41 -32 -47 0 -6 8 1 17 14 10 14 27 32 38 42
11 9 18 19 15 22 -3 3 -20 -11 -38 -31z"/>
<path d="M852 380 c0 -19 2 -27 5 -17 2 9 2 25 0 35 -3 9 -5 1 -5 -18z"/>
<path d="M860 334 c0 -13 18 -39 24 -34 2 3 -2 14 -10 24 -8 11 -14 16 -14 10z"/>
<path d="M958 263 c6 -2 18 -2 25 0 6 3 1 5 -13 5 -14 0 -19 -2 -12 -5z"/>
</g>
</svg>
